Coordinates
version=1
nRows=29
nColumns=24
inDegrees=yes

Units are S.I. units (second, meters, Newtons, ...)
Angles are in degrees.

endheader
time	pelvis_tilt	pelvis_list	pelvis_rotation	pelvis_tx	pelvis_ty	pelvis_tz	hip_flexion_r	hip_adduction_r	hip_rotation_r	knee_angle_r	ankle_angle_r	subtalar_angle_r	mtp_angle_r	hip_flexion_l	hip_adduction_l	hip_rotation_l	knee_angle_l	ankle_angle_l	subtalar_angle_l	mtp_angle_l	lumbar_extension	lumbar_bending	lumbar_rotation
      4.43000000	    -11.40628599	      4.38337169	     -4.72999941	     -0.82950079	     -0.01976714	     -0.66900751	     15.54625778	     -5.73824258	     -1.96874438	    -58.08851311	    -22.01666895	    -11.21366214	      7.82044189	     28.34403654	      5.86422949	    -12.36123959	    -23.38262081	      1.92351286	    -11.00338613	      3.46219154	      8.89721619	     -4.78228769	      3.16798975
      4.43500000	    -11.52357532	      4.32580163	     -4.59384324	     -0.82393845	     -0.01911959	     -0.66952130	     16.58800603	     -5.67228402	     -1.98788814	    -59.31812976	    -21.43235700	    -11.82535479	      7.24301277	     27.94574382	      5.95619767	    -12.19138934	    -23.11489495	      2.13841493	    -10.95709669	      3.53926726	      8.97122021	     -4.72956972	      2.87082381
      4.44000000	    -11.63276496	      4.25035671	     -4.44750808	     -0.81839851	     -0.01844382	     -0.67007566	     17.60831682	     -5.59986302	     -2.03340257	    -60.46532636	    -20.74088454	    -12.33472132	      6.63190970	     27.52931236	      6.04290662	    -11.97707201	    -22.83340965	      2.36195896	    -10.91617098	      3.52538369	      9.03315437	     -4.65403925	      2.57057958
      4.44500000	    -11.59488457	      4.17631594	     -4.33717156	     -0.81281024	     -0.01753585	     -0.67059095	     18.43381665	     -5.53445896	     -2.03420003	    -61.45705749	    -20.09225327	    -12.79767738	      6.62817194	     26.90588165	      6.13501142	    -11.74545731	    -22.47722508	      2.57808127	    -10.81375385	      3.55343787	      8.94586649	     -4.58400510	      2.30763172
      4.45000000	    -11.79428348	      4.08553053	     -4.18729640	     -0.80734702	     -0.01696394	     -0.67116244	     19.56665198	     -5.44239734	     -2.10925346	    -62.52503400	    -19.15814920	    -13.07315641	      5.16032071	     26.59098974	      6.20042345	    -11.52984834	    -22.20056945	      2.85495367	    -10.78397420	      3.18980993	      9.09891528	     -4.47866206	      1.99221245
      4.45500000	    -11.78138181	      3.97752962	     -4.06857293	     -0.80182948	     -0.01606635	     -0.67169798	     20.39997393	     -5.34767915	     -2.15712726	    -63.34887578	    -18.51499050	    -13.53387999	      5.22900650	     25.99078604	      6.25379306	    -11.30489874	    -21.82846688	      3.03931549	    -10.71221727	      3.20715107	      9.02957843	     -4.36556499	      1.73923143
      4.46000000	    -12.00197413	      3.84353120	     -3.87681392	     -0.79641437	     -0.01549342	     -0.67240523	     21.50541486	     -5.24493178	     -2.29084146	    -64.16760514	    -17.83869229	    -13.92063200	      4.95339012	     25.68654087	      6.30060475	    -11.00025152	    -21.51462346	      3.19362423	    -10.78750606	      3.07056668	      9.19711517	     -4.20594034	      1.38975874
      4.46500000	    -11.99020087	      3.75007367	     -3.77324493	     -0.79091000	     -0.01459658	     -0.67293272	     22.32756295	     -5.16480623	     -2.32816837	    -64.84212730	    -17.20623096	    -14.28277301	      4.97627236	     25.06836494	      6.35505464	    -10.81858060	    -21.09975278	      3.36522360	    -10.68401451	      3.06550520	      9.13669639	     -4.09887824	      1.15383986
      4.47000000	    -12.17719296	      3.62437591	     -3.59158575	     -0.78550308	     -0.01398306	     -0.67359992	     23.37162863	     -5.07044272	     -2.44767083	    -65.50355857	    -16.50077237	    -14.51174103	      4.57146017	     24.70516104	      6.39986627	    -10.54607550	    -20.74254189	      3.52577441	    -10.71187763	      2.86534292	      9.27500185	     -3.94850285	      0.82719700
      4.47500000	    -12.15208758	      3.52983885	     -3.49672313	     -0.78003530	     -0.01308083	     -0.67410559	     24.15775813	     -4.98307357	     -2.48055101	    -66.01781684	    -15.93064044	    -14.84107245	      4.60969868	     24.05998241	      6.44145536	    -10.39973085	    -20.29556816	      3.68164238	    -10.59451372	      2.86482554	      9.20011877	     -3.83694104	      0.61320791
      4.48000000	    -12.17089127	      3.43734557	     -3.34750473	     -0.77457371	     -0.01227986	     -0.67471474	     24.97797593	     -4.93343663	     -2.58155648	    -66.47513933	    -15.35644130	    -15.10391458	      4.58234483	     23.46991312	      6.50447291	    -10.23814396	    -19.85428415	      3.84535326	    -10.50323288	      2.83814671	      9.17069879	     -3.72725056	      0.33275943
      4.48500000	    -12.17609786	      3.32609944	     -3.24081765	     -0.76909114	     -0.01141936	     -0.67520557	     25.75746627	     -4.82101743	     -2.62251296	    -66.82301523	    -14.80969390	    -15.37385219	      4.61709016	     22.84457826	      6.52482661	    -10.07309872	    -19.38338050	      3.97022172	    -10.39570278	      2.83060194	      9.13677946	     -3.59505380	      0.11896766
      4.49000000	    -12.17894226	      3.23006035	     -3.08636908	     -0.76361243	     -0.01062306	     -0.67579904	     26.51977080	     -4.76615205	     -2.72424725	    -67.11097239	    -14.26367177	    -15.59838374	      4.63250854	     22.22039173	      6.58017375	     -9.90849716	    -18.91047228	      4.11496185	    -10.29752297	      2.81993975	      9.09626609	     -3.48172732	     -0.15189169
      4.49500000	    -12.17796399	      3.11285952	     -2.99794912	     -0.75811814	     -0.00979471	     -0.67624508	     27.25906817	     -4.63492660	     -2.75348566	    -67.29532344	    -13.75481724	    -15.85320553	      4.69535734	     21.58061718	      6.57735428	     -9.81849255	    -18.41815705	      4.23002791	    -10.21329467	      2.81963287	      9.06474081	     -3.34182523	     -0.36486736
      4.50000000	    -12.13367981	      3.03478889	     -2.81807487	     -0.75259262	     -0.00898346	     -0.67684251	     27.92238674	     -4.62335216	     -2.88961669	    -67.41747395	    -13.21218498	    -16.04346967	      4.74635990	     20.88242139	      6.65641253	     -9.60334970	    -17.91024834	      4.35630830	    -10.05101382	      2.83010081	      8.98689601	     -3.25690123	     -0.63294046
      4.50500000	    -12.09770272	      2.93535882	     -2.67959137	     -0.74706096	     -0.00815596	     -0.67733548	     28.56715170	     -4.54155682	     -2.96059858	    -67.43338538	    -12.69019564	    -16.25512335	      4.80728233	     20.18394993	      6.68815118	     -9.44136767	    -17.38224837	      4.45009469	     -9.90857068	      2.83450503	      8.92061674	     -3.13973358	     -0.85589088
      4.51000000	    -11.96102828	      2.82402979	     -2.49895199	     -0.74150272	     -0.00728870	     -0.67793359	     29.06676712	     -4.50807032	     -3.11989589	    -67.36786300	    -12.15070593	    -16.41297647	      4.87895674	     19.37091914	      6.73043022	     -9.26067853	    -16.84832031	      4.58600353	     -9.78211094	      2.85584680	      8.74703443	     -3.02200302	     -1.16331691
      4.51500000	    -11.80931638	      2.69489470	     -2.34956053	     -0.73592624	     -0.00636480	     -0.67844057	     29.51358613	     -4.41900573	     -3.23175254	    -67.18809426	    -11.62691050	    -16.60143773	      4.94747503	     18.53162012	      6.73265279	     -9.11163930	    -16.29638171	      4.66489924	     -9.64958190	      2.87797252	      8.55993561	     -2.87896599	     -1.43012505
      4.52000000	    -11.72175323	      2.60457507	     -2.21518058	     -0.73037810	     -0.00562039	     -0.67893784	     30.04440215	     -4.37553305	     -3.33914002	    -66.97895150	    -11.13015107	    -16.80734878	      5.00623357	     17.76868023	      6.76293488	     -8.96903187	    -15.75180064	      4.78913267	     -9.49105805	      2.92381723	      8.44624662	     -2.76925845	     -1.64165292
      4.52500000	    -11.56169395	      2.47027814	     -2.05798257	     -0.72480831	     -0.00476456	     -0.67943397	     30.43521286	     -4.29649246	     -3.47803418	    -66.64363485	    -10.60796435	    -16.98644628	      5.04381508	     16.92548911	      6.74655937	     -8.84068553	    -15.20712339	      4.87051673	     -9.31072372	      2.98527160	      8.25615403	     -2.62281013	     -1.91886316
      4.53000000	    -11.42564961	      2.35601883	     -1.91261498	     -0.71925244	     -0.00401277	     -0.67991956	     30.84677330	     -4.24078073	     -3.61344356	    -66.25482236	    -10.10483250	    -17.17897563	      5.03758642	     16.11102883	      6.74198901	     -8.72058850	    -14.66349953	      4.97143490	     -9.12199495	      3.06880771	      8.09271142	     -2.49014965	     -2.15954863
      4.53500000	    -11.29114879	      2.23656405	     -1.76275313	     -0.71370389	     -0.00330926	     -0.68040561	     31.23391961	     -4.18760675	     -3.76251107	    -65.78883125	     -9.60032494	    -17.36024796	      4.97999232	     15.30381837	      6.72605607	     -8.60573496	    -14.12888958	      5.07634327	     -8.91530709	      3.17135326	      7.93104576	     -2.35118002	     -2.40506555
      4.54000000	    -11.15960401	      2.11770299	     -1.60967109	     -0.70817410	     -0.00266450	     -0.68088647	     31.60106495	     -4.14214166	     -3.92307366	    -65.24959816	     -9.09909204	    -17.53926846	      4.86285453	     14.50760485	      6.70412710	     -8.50345663	    -13.60461497	      5.18478524	     -8.69405807	      3.29044058	      7.77186288	     -2.21170261	     -2.65279113
      4.54500000	    -11.04718717	      2.01005774	     -1.45607755	     -0.70265318	     -0.00212455	     -0.68136194	     31.97357650	     -4.11696110	     -4.09315296	    -64.65174440	     -8.61288619	    -17.71432312	      4.70638502	     13.73650489	      6.68881395	     -8.38739707	    -13.08857164	      5.32155172	     -8.46084608	      3.41845238	      7.63368310	     -2.08365383	     -2.88597962
      4.55000000	    -10.92278261	      1.88706856	     -1.29462984	     -0.69714102	     -0.00159811	     -0.68185326	     32.29365740	     -4.08072751	     -4.27456390	    -63.95924187	     -8.13410407	    -17.88696821	      4.46853812	     12.96454106	      6.65200767	     -8.29809677	    -12.59149372	      5.43906548	     -8.20846243	      3.55986143	      7.48256784	     -1.93400761	     -3.14251156
      4.55500000	    -10.81814122	      1.77716506	     -1.13323427	     -0.69165424	     -0.00117351	     -0.68230157	     32.61878264	     -4.06056217	     -4.46213245	    -63.20658736	     -7.67814741	    -18.06338963	      4.17231222	     12.22365377	      6.62003282	     -8.21462514	    -12.10783362	      5.56749939	     -7.94998988	      3.71061338	      7.35086722	     -1.80512302	     -3.39183258
      4.56000000	    -10.72483558	      1.66909962	     -0.96647945	     -0.68618327	     -0.00082544	     -0.68276026	     32.92946755	     -4.04871725	     -4.65719725	    -62.38055860	     -7.24862077	    -18.24044974	      3.82158825	     11.50808586	      6.58550053	     -8.12807127	    -11.64715460	      5.69999481	     -7.68065736	      3.86587956	      7.23104930	     -1.67208668	     -3.64792880
      4.56500000	    -10.64221919	      1.57169373	     -0.79573927	     -0.68074024	     -0.00056173	     -0.68320840	     33.22869729	     -4.05130375	     -4.85746028	    -61.48631734	     -6.84717929	    -18.42530129	      3.40914784	     10.81857629	      6.55755097	     -8.05807542	    -11.20702922	      5.83343915	     -7.41208516	      4.02415033	      7.12052719	     -1.54741124	     -3.90968207
      4.57000000	    -10.58382423	      1.48712119	     -0.62431715	     -0.67532568	     -0.00040673	     -0.68362726	     33.53477005	     -4.06850249	     -5.05915244	    -60.53024959	     -6.47369139	    -18.60716326	      2.96543706	     10.16910481	      6.53740881	     -7.99045506	    -10.78768150	      5.97351960	     -7.15389843	      4.17844033	      7.03198640	     -1.44439731	     -4.16648407
